<svg width="800" height="600" viewBox="0 0 800 600" fill="none" xmlns="http://www.w3.org/2000/svg">
  <defs>
    <linearGradient id="bg" x1="80" y1="40" x2="720" y2="560" gradientUnits="userSpaceOnUse">
      <stop stop-color="#1F3E70"/>
      <stop offset="1" stop-color="#14213D"/>
    </linearGradient>
    <linearGradient id="card" x1="0" y1="0" x2="1" y2="1">
      <stop stop-color="#FFFFFF" stop-opacity="0.95"/>
      <stop offset="1" stop-color="#E6ECF7" stop-opacity="0.95"/>
    </linearGradient>
  </defs>

  <rect x="0" y="0" width="800" height="600" rx="40" fill="url(#bg)"/>
  <circle cx="120" cy="120" r="84" fill="#FCA311" fill-opacity="0.25"/>
  <circle cx="704" cy="520" r="120" fill="#FCA311" fill-opacity="0.18"/>

  <rect x="120" y="110" width="560" height="380" rx="28" fill="url(#card)"/>
  <rect x="160" y="156" width="380" height="22" rx="11" fill="#D6E0F2"/>
  <rect x="160" y="196" width="500" height="16" rx="8" fill="#E5EBF7"/>

  <rect x="160" y="248" width="220" height="120" rx="16" fill="#EEF3FD"/>
  <rect x="400" y="248" width="260" height="120" rx="16" fill="#EEF3FD"/>

  <rect x="160" y="388" width="500" height="16" rx="8" fill="#E5EBF7"/>
  <rect x="160" y="418" width="300" height="16" rx="8" fill="#E5EBF7"/>

  <rect x="500" y="412" width="160" height="44" rx="14" fill="#FCA311"/>
  <text x="580" y="440" text-anchor="middle" font-size="16" fill="white" font-family="Inter, Arial, sans-serif" font-weight="700">Explore</text>
</svg>
